<?xml version="1.0" encoding="utf-8" standalone="no"?>
<!DOCTYPE svg PUBLIC "-//W3C//DTD SVG 1.1//EN"
  "http://www.w3.org/Graphics/SVG/1.1/DTD/svg11.dtd">
<svg xmlns:xlink="http://www.w3.org/1999/xlink" width="665.586953pt" height="265.998594pt" viewBox="0 0 665.586953 265.998594" xmlns="http://www.w3.org/2000/svg" version="1.1">
 <metadata>
  <rdf:RDF xmlns:dc="http://purl.org/dc/elements/1.1/" xmlns:cc="http://creativecommons.org/ns#" xmlns:rdf="http://www.w3.org/1999/02/22-rdf-syntax-ns#">
   <cc:Work>
    <dc:type rdf:resource="http://purl.org/dc/dcmitype/StillImage"/>
    <dc:format>image/svg+xml</dc:format>
   </cc:Work>
  </rdf:RDF>
 </metadata>
 <defs>
  <style type="text/css">*{stroke-linejoin: round; stroke-linecap: butt}</style>
 </defs>
 <g id="figure_1">
  <g id="patch_1">
   <path d="M 0 265.998594 
L 665.586953 265.998594 
L 665.586953 0 
L 0 0 
z
" style="fill: #ffffff"/>
  </g>
  <g id="axes_1">
   <g id="patch_2">
    <path d="M 40.925781 241.798594 
L 654.725781 241.798594 
L 654.725781 20.038594 
L 40.925781 20.038594 
z
" style="fill: #ffffff"/>
   </g>
   <g id="patch_3">
    <path d="M 68.825781 241.798594 
L 80.098509 241.798594 
L 80.098509 150.910472 
L 68.825781 150.910472 
z
" clip-path="url(#peeead35bc0)" style="fill: #1f77b4"/>
   </g>
   <g id="patch_4">
    <path d="M 97.007599 241.798594 
L 108.280327 241.798594 
L 108.280327 221.96603 
L 97.007599 221.96603 
z
" clip-path="url(#peeead35bc0)" style="fill: #1f77b4"/>
   </g>
   <g id="patch_5">
    <path d="M 125.189418 241.798594 
L 136.462145 241.798594 
L 136.462145 143.983143 
L 125.189418 143.983143 
z
" clip-path="url(#peeead35bc0)" style="fill: #1f77b4"/>
   </g>
   <g id="patch_6">
    <path d="M 153.371236 241.798594 
L 164.643963 241.798594 
L 164.643963 54.570357 
L 153.371236 54.570357 
z
" clip-path="url(#peeead35bc0)" style="fill: #1f77b4"/>
   </g>
   <g id="patch_7">
    <path d="M 181.553054 241.798594 
L 192.825781 241.798594 
L 192.825781 173.5567 
L 181.553054 173.5567 
z
" clip-path="url(#peeead35bc0)" style="fill: #1f77b4"/>
   </g>
   <g id="patch_8">
    <path d="M 209.734872 241.798594 
L 221.007599 241.798594 
L 221.007599 184.527617 
L 209.734872 184.527617 
z
" clip-path="url(#peeead35bc0)" style="fill: #1f77b4"/>
   </g>
   <g id="patch_9">
    <path d="M 237.91669 241.798594 
L 249.189418 241.798594 
L 249.189418 204.725745 
L 237.91669 204.725745 
z
" clip-path="url(#peeead35bc0)" style="fill: #1f77b4"/>
   </g>
   <g id="patch_10">
    <path d="M 266.098509 241.798594 
L 277.371236 241.798594 
L 277.371236 150.83881 
L 266.098509 150.83881 
z
" clip-path="url(#peeead35bc0)" style="fill: #1f77b4"/>
   </g>
   <g id="patch_11">
    <path d="M 294.280327 241.798594 
L 305.553054 241.798594 
L 305.553054 84.112863 
L 294.280327 84.112863 
z
" clip-path="url(#peeead35bc0)" style="fill: #1f77b4"/>
   </g>
   <g id="patch_12">
    <path d="M 322.462145 241.798594 
L 333.734872 241.798594 
L 333.734872 99.259163 
L 322.462145 99.259163 
z
" clip-path="url(#peeead35bc0)" style="fill: #1f77b4"/>
   </g>
   <g id="patch_13">
    <path d="M 350.643963 241.798594 
L 361.91669 241.798594 
L 361.91669 195.937211 
L 350.643963 195.937211 
z
" clip-path="url(#peeead35bc0)" style="fill: #1f77b4"/>
   </g>
   <g id="patch_14">
    <path d="M 378.825781 241.798594 
L 390.098509 241.798594 
L 390.098509 181.100814 
L 378.825781 181.100814 
z
" clip-path="url(#peeead35bc0)" style="fill: #1f77b4"/>
   </g>
   <g id="patch_15">
    <path d="M 407.007599 241.798594 
L 418.280327 241.798594 
L 418.280327 169.469485 
L 407.007599 169.469485 
z
" clip-path="url(#peeead35bc0)" style="fill: #1f77b4"/>
   </g>
   <g id="patch_16">
    <path d="M 435.189418 241.798594 
L 446.462145 241.798594 
L 446.462145 163.459328 
L 435.189418 163.459328 
z
" clip-path="url(#peeead35bc0)" style="fill: #1f77b4"/>
   </g>
   <g id="patch_17">
    <path d="M 463.371236 241.798594 
L 474.643963 241.798594 
L 474.643963 124.99736 
L 463.371236 124.99736 
z
" clip-path="url(#peeead35bc0)" style="fill: #1f77b4"/>
   </g>
   <g id="patch_18">
    <path d="M 491.553054 241.798594 
L 502.825781 241.798594 
L 502.825781 161.786904 
L 491.553054 161.786904 
z
" clip-path="url(#peeead35bc0)" style="fill: #1f77b4"/>
   </g>
   <g id="patch_19">
    <path d="M 519.734872 241.798594 
L 531.007599 241.798594 
L 531.007599 156.28871 
L 519.734872 156.28871 
z
" clip-path="url(#peeead35bc0)" style="fill: #1f77b4"/>
   </g>
   <g id="patch_20">
    <path d="M 547.91669 241.798594 
L 559.189418 241.798594 
L 559.189418 141.71948 
L 547.91669 141.71948 
z
" clip-path="url(#peeead35bc0)" style="fill: #1f77b4"/>
   </g>
   <g id="patch_21">
    <path d="M 576.098509 241.798594 
L 587.371236 241.798594 
L 587.371236 215.741171 
L 576.098509 215.741171 
z
" clip-path="url(#peeead35bc0)" style="fill: #1f77b4"/>
   </g>
   <g id="patch_22">
    <path d="M 604.280327 241.798594 
L 615.553054 241.798594 
L 615.553054 176.632445 
L 604.280327 176.632445 
z
" clip-path="url(#peeead35bc0)" style="fill: #1f77b4"/>
   </g>
   <g id="patch_23">
    <path d="M 80.098509 241.798594 
L 91.371236 241.798594 
L 91.371236 153.550328 
L 80.098509 153.550328 
z
" clip-path="url(#peeead35bc0)" style="fill: #ff7f0e"/>
   </g>
   <g id="patch_24">
    <path d="M 108.280327 241.798594 
L 119.553054 241.798594 
L 119.553054 223.493837 
L 108.280327 223.493837 
z
" clip-path="url(#peeead35bc0)" style="fill: #ff7f0e"/>
   </g>
   <g id="patch_25">
    <path d="M 136.462145 241.798594 
L 147.734872 241.798594 
L 147.734872 141.339415 
L 136.462145 141.339415 
z
" clip-path="url(#peeead35bc0)" style="fill: #ff7f0e"/>
   </g>
   <g id="patch_26">
    <path d="M 164.643963 241.798594 
L 175.91669 241.798594 
L 175.91669 33.518819 
L 164.643963 33.518819 
z
" clip-path="url(#peeead35bc0)" style="fill: #ff7f0e"/>
   </g>
   <g id="patch_27">
    <path d="M 192.825781 241.798594 
L 204.098509 241.798594 
L 204.098509 179.303688 
L 192.825781 179.303688 
z
" clip-path="url(#peeead35bc0)" style="fill: #ff7f0e"/>
   </g>
   <g id="patch_28">
    <path d="M 221.007599 241.798594 
L 232.280327 241.798594 
L 232.280327 191.106261 
L 221.007599 191.106261 
z
" clip-path="url(#peeead35bc0)" style="fill: #ff7f0e"/>
   </g>
   <g id="patch_29">
    <path d="M 249.189418 241.798594 
L 260.462145 241.798594 
L 260.462145 207.690378 
L 249.189418 207.690378 
z
" clip-path="url(#peeead35bc0)" style="fill: #ff7f0e"/>
   </g>
   <g id="patch_30">
    <path d="M 277.371236 241.798594 
L 288.643963 241.798594 
L 288.643963 151.989046 
L 277.371236 151.989046 
z
" clip-path="url(#peeead35bc0)" style="fill: #ff7f0e"/>
   </g>
   <g id="patch_31">
    <path d="M 305.553054 241.798594 
L 316.825781 241.798594 
L 316.825781 74.781031 
L 305.553054 74.781031 
z
" clip-path="url(#peeead35bc0)" style="fill: #ff7f0e"/>
   </g>
   <g id="patch_32">
    <path d="M 333.734872 241.798594 
L 345.007599 241.798594 
L 345.007599 105.285354 
L 333.734872 105.285354 
z
" clip-path="url(#peeead35bc0)" style="fill: #ff7f0e"/>
   </g>
   <g id="patch_33">
    <path d="M 361.91669 241.798594 
L 373.189418 241.798594 
L 373.189418 196.119734 
L 361.91669 196.119734 
z
" clip-path="url(#peeead35bc0)" style="fill: #ff7f0e"/>
   </g>
   <g id="patch_34">
    <path d="M 390.098509 241.798594 
L 401.371236 241.798594 
L 401.371236 181.503263 
L 390.098509 181.503263 
z
" clip-path="url(#peeead35bc0)" style="fill: #ff7f0e"/>
   </g>
   <g id="patch_35">
    <path d="M 418.280327 241.798594 
L 429.553054 241.798594 
L 429.553054 170.726719 
L 418.280327 170.726719 
z
" clip-path="url(#peeead35bc0)" style="fill: #ff7f0e"/>
   </g>
   <g id="patch_36">
    <path d="M 446.462145 241.798594 
L 457.734872 241.798594 
L 457.734872 162.788671 
L 446.462145 162.788671 
z
" clip-path="url(#peeead35bc0)" style="fill: #ff7f0e"/>
   </g>
   <g id="patch_37">
    <path d="M 474.643963 241.798594 
L 485.91669 241.798594 
L 485.91669 123.637874 
L 474.643963 123.637874 
z
" clip-path="url(#peeead35bc0)" style="fill: #ff7f0e"/>
   </g>
   <g id="patch_38">
    <path d="M 502.825781 241.798594 
L 514.098509 241.798594 
L 514.098509 163.068094 
L 502.825781 163.068094 
z
" clip-path="url(#peeead35bc0)" style="fill: #ff7f0e"/>
   </g>
   <g id="patch_39">
    <path d="M 531.007599 241.798594 
L 542.280327 241.798594 
L 542.280327 156.158264 
L 531.007599 156.158264 
z
" clip-path="url(#peeead35bc0)" style="fill: #ff7f0e"/>
   </g>
   <g id="patch_40">
    <path d="M 559.189418 241.798594 
L 570.462145 241.798594 
L 570.462145 145.383823 
L 559.189418 145.383823 
z
" clip-path="url(#peeead35bc0)" style="fill: #ff7f0e"/>
   </g>
   <g id="patch_41">
    <path d="M 587.371236 241.798594 
L 598.643963 241.798594 
L 598.643963 216.801747 
L 587.371236 216.801747 
z
" clip-path="url(#peeead35bc0)" style="fill: #ff7f0e"/>
   </g>
   <g id="patch_42">
    <path d="M 615.553054 241.798594 
L 626.825781 241.798594 
L 626.825781 177.337464 
L 615.553054 177.337464 
z
" clip-path="url(#peeead35bc0)" style="fill: #ff7f0e"/>
   </g>
   <g id="matplotlib.axis_1">
    <g id="xtick_1">
     <g id="line2d_1">
      <defs>
       <path id="m78f39848a8" d="M 0 0 
L 0 3.5 
" style="stroke: #000000; stroke-width: 0.8"/>
      </defs>
      <g>
       <use xlink:href="#m78f39848a8" x="80.098509" y="241.798594" style="stroke: #000000; stroke-width: 0.8"/>
      </g>
     </g>
     <g id="text_1">
      <!-- A -->
      <g transform="translate(76.678196 256.39625) scale(0.1 -0.1)">
       <defs>
        <path id="DejaVuSans-24" d="M 2188 4044 
L 1331 1722 
L 3047 1722 
L 2188 4044 
z
M 1831 4666 
L 2547 4666 
L 4325 0 
L 3669 0 
L 3244 1197 
L 1141 1197 
L 716 0 
L 50 0 
L 1831 4666 
z
" transform="scale(0.015625)"/>
       </defs>
       <use xlink:href="#DejaVuSans-24"/>
      </g>
     </g>
    </g>
    <g id="xtick_2">
     <g id="line2d_2">
      <g>
       <use xlink:href="#m78f39848a8" x="108.280327" y="241.798594" style="stroke: #000000; stroke-width: 0.8"/>
      </g>
     </g>
     <g id="text_2">
      <!-- C -->
      <g transform="translate(104.78892 256.39625) scale(0.1 -0.1)">
       <defs>
        <path id="DejaVuSans-26" d="M 4122 4306 
L 4122 3641 
Q 3803 3938 3442 4084 
Q 3081 4231 2675 4231 
Q 1875 4231 1450 3742 
Q 1025 3253 1025 2328 
Q 1025 1406 1450 917 
Q 1875 428 2675 428 
Q 3081 428 3442 575 
Q 3803 722 4122 1019 
L 4122 359 
Q 3791 134 3420 21 
Q 3050 -91 2638 -91 
Q 1578 -91 968 557 
Q 359 1206 359 2328 
Q 359 3453 968 4101 
Q 1578 4750 2638 4750 
Q 3056 4750 3426 4639 
Q 3797 4528 4122 4306 
z
" transform="scale(0.015625)"/>
       </defs>
       <use xlink:href="#DejaVuSans-26"/>
      </g>
     </g>
    </g>
    <g id="xtick_3">
     <g id="line2d_3">
      <g>
       <use xlink:href="#m78f39848a8" x="136.462145" y="241.798594" style="stroke: #000000; stroke-width: 0.8"/>
      </g>
     </g>
     <g id="text_3">
      <!-- D -->
      <g transform="translate(132.612145 256.39625) scale(0.1 -0.1)">
       <defs>
        <path id="DejaVuSans-27" d="M 1259 4147 
L 1259 519 
L 2022 519 
Q 2988 519 3436 956 
Q 3884 1394 3884 2338 
Q 3884 3275 3436 3711 
Q 2988 4147 2022 4147 
L 1259 4147 
z
M 628 4666 
L 1925 4666 
Q 3281 4666 3915 4102 
Q 4550 3538 4550 2338 
Q 4550 1131 3912 565 
Q 3275 0 1925 0 
L 628 0 
L 628 4666 
z
" transform="scale(0.015625)"/>
       </defs>
       <use xlink:href="#DejaVuSans-27"/>
      </g>
     </g>
    </g>
    <g id="xtick_4">
     <g id="line2d_4">
      <g>
       <use xlink:href="#m78f39848a8" x="164.643963" y="241.798594" style="stroke: #000000; stroke-width: 0.8"/>
      </g>
     </g>
     <g id="text_4">
      <!-- E -->
      <g transform="translate(161.484588 256.39625) scale(0.1 -0.1)">
       <defs>
        <path id="DejaVuSans-28" d="M 628 4666 
L 3578 4666 
L 3578 4134 
L 1259 4134 
L 1259 2753 
L 3481 2753 
L 3481 2222 
L 1259 2222 
L 1259 531 
L 3634 531 
L 3634 0 
L 628 0 
L 628 4666 
z
" transform="scale(0.015625)"/>
       </defs>
       <use xlink:href="#DejaVuSans-28"/>
      </g>
     </g>
    </g>
    <g id="xtick_5">
     <g id="line2d_5">
      <g>
       <use xlink:href="#m78f39848a8" x="192.825781" y="241.798594" style="stroke: #000000; stroke-width: 0.8"/>
      </g>
     </g>
     <g id="text_5">
      <!-- F -->
      <g transform="translate(189.95 256.39625) scale(0.1 -0.1)">
       <defs>
        <path id="DejaVuSans-29" d="M 628 4666 
L 3309 4666 
L 3309 4134 
L 1259 4134 
L 1259 2759 
L 3109 2759 
L 3109 2228 
L 1259 2228 
L 1259 0 
L 628 0 
L 628 4666 
z
" transform="scale(0.015625)"/>
       </defs>
       <use xlink:href="#DejaVuSans-29"/>
      </g>
     </g>
    </g>
    <g id="xtick_6">
     <g id="line2d_6">
      <g>
       <use xlink:href="#m78f39848a8" x="221.007599" y="241.798594" style="stroke: #000000; stroke-width: 0.8"/>
      </g>
     </g>
     <g id="text_6">
      <!-- G -->
      <g transform="translate(217.133381 256.39625) scale(0.1 -0.1)">
       <defs>
        <path id="DejaVuSans-2a" d="M 3809 666 
L 3809 1919 
L 2778 1919 
L 2778 2438 
L 4434 2438 
L 4434 434 
Q 4069 175 3628 42 
Q 3188 -91 2688 -91 
Q 1594 -91 976 548 
Q 359 1188 359 2328 
Q 359 3472 976 4111 
Q 1594 4750 2688 4750 
Q 3144 4750 3555 4637 
Q 3966 4525 4313 4306 
L 4313 3634 
Q 3963 3931 3569 4081 
Q 3175 4231 2741 4231 
Q 1884 4231 1454 3753 
Q 1025 3275 1025 2328 
Q 1025 1384 1454 906 
Q 1884 428 2741 428 
Q 3075 428 3337 486 
Q 3600 544 3809 666 
z
" transform="scale(0.015625)"/>
       </defs>
       <use xlink:href="#DejaVuSans-2a"/>
      </g>
     </g>
    </g>
    <g id="xtick_7">
     <g id="line2d_7">
      <g>
       <use xlink:href="#m78f39848a8" x="249.189418" y="241.798594" style="stroke: #000000; stroke-width: 0.8"/>
      </g>
     </g>
     <g id="text_7">
      <!-- H -->
      <g transform="translate(245.429261 256.39625) scale(0.1 -0.1)">
       <defs>
        <path id="DejaVuSans-2b" d="M 628 4666 
L 1259 4666 
L 1259 2753 
L 3553 2753 
L 3553 4666 
L 4184 4666 
L 4184 0 
L 3553 0 
L 3553 2222 
L 1259 2222 
L 1259 0 
L 628 0 
L 628 4666 
z
" transform="scale(0.015625)"/>
       </defs>
       <use xlink:href="#DejaVuSans-2b"/>
      </g>
     </g>
    </g>
    <g id="xtick_8">
     <g id="line2d_8">
      <g>
       <use xlink:href="#m78f39848a8" x="277.371236" y="241.798594" style="stroke: #000000; stroke-width: 0.8"/>
      </g>
     </g>
     <g id="text_8">
      <!-- I -->
      <g transform="translate(275.896236 256.39625) scale(0.1 -0.1)">
       <defs>
        <path id="DejaVuSans-2c" d="M 628 4666 
L 1259 4666 
L 1259 0 
L 628 0 
L 628 4666 
z
" transform="scale(0.015625)"/>
       </defs>
       <use xlink:href="#DejaVuSans-2c"/>
      </g>
     </g>
    </g>
    <g id="xtick_9">
     <g id="line2d_9">
      <g>
       <use xlink:href="#m78f39848a8" x="305.553054" y="241.798594" style="stroke: #000000; stroke-width: 0.8"/>
      </g>
     </g>
     <g id="text_9">
      <!-- K -->
      <g transform="translate(302.274148 256.39625) scale(0.1 -0.1)">
       <defs>
        <path id="DejaVuSans-2e" d="M 628 4666 
L 1259 4666 
L 1259 2694 
L 3353 4666 
L 4166 4666 
L 1850 2491 
L 4331 0 
L 3500 0 
L 1259 2247 
L 1259 0 
L 628 0 
L 628 4666 
z
" transform="scale(0.015625)"/>
       </defs>
       <use xlink:href="#DejaVuSans-2e"/>
      </g>
     </g>
    </g>
    <g id="xtick_10">
     <g id="line2d_10">
      <g>
       <use xlink:href="#m78f39848a8" x="333.734872" y="241.798594" style="stroke: #000000; stroke-width: 0.8"/>
      </g>
     </g>
     <g id="text_10">
      <!-- L -->
      <g transform="translate(330.948935 256.39625) scale(0.1 -0.1)">
       <defs>
        <path id="DejaVuSans-2f" d="M 628 4666 
L 1259 4666 
L 1259 531 
L 3531 531 
L 3531 0 
L 628 0 
L 628 4666 
z
" transform="scale(0.015625)"/>
       </defs>
       <use xlink:href="#DejaVuSans-2f"/>
      </g>
     </g>
    </g>
    <g id="xtick_11">
     <g id="line2d_11">
      <g>
       <use xlink:href="#m78f39848a8" x="361.91669" y="241.798594" style="stroke: #000000; stroke-width: 0.8"/>
      </g>
     </g>
     <g id="text_11">
      <!-- M -->
      <g transform="translate(357.602628 256.39625) scale(0.1 -0.1)">
       <defs>
        <path id="DejaVuSans-30" d="M 628 4666 
L 1569 4666 
L 2759 1491 
L 3956 4666 
L 4897 4666 
L 4897 0 
L 4281 0 
L 4281 4097 
L 3078 897 
L 2444 897 
L 1241 4097 
L 1241 0 
L 628 0 
L 628 4666 
z
" transform="scale(0.015625)"/>
       </defs>
       <use xlink:href="#DejaVuSans-30"/>
      </g>
     </g>
    </g>
    <g id="xtick_12">
     <g id="line2d_12">
      <g>
       <use xlink:href="#m78f39848a8" x="390.098509" y="241.798594" style="stroke: #000000; stroke-width: 0.8"/>
      </g>
     </g>
     <g id="text_12">
      <!-- N -->
      <g transform="translate(386.357884 256.39625) scale(0.1 -0.1)">
       <defs>
        <path id="DejaVuSans-31" d="M 628 4666 
L 1478 4666 
L 3547 763 
L 3547 4666 
L 4159 4666 
L 4159 0 
L 3309 0 
L 1241 3903 
L 1241 0 
L 628 0 
L 628 4666 
z
" transform="scale(0.015625)"/>
       </defs>
       <use xlink:href="#DejaVuSans-31"/>
      </g>
     </g>
    </g>
    <g id="xtick_13">
     <g id="line2d_13">
      <g>
       <use xlink:href="#m78f39848a8" x="418.280327" y="241.798594" style="stroke: #000000; stroke-width: 0.8"/>
      </g>
     </g>
     <g id="text_13">
      <!-- P -->
      <g transform="translate(415.265483 256.39625) scale(0.1 -0.1)">
       <defs>
        <path id="DejaVuSans-33" d="M 1259 4147 
L 1259 2394 
L 2053 2394 
Q 2494 2394 2734 2622 
Q 2975 2850 2975 3272 
Q 2975 3691 2734 3919 
Q 2494 4147 2053 4147 
L 1259 4147 
z
M 628 4666 
L 2053 4666 
Q 2838 4666 3239 4311 
Q 3641 3956 3641 3272 
Q 3641 2581 3239 2228 
Q 2838 1875 2053 1875 
L 1259 1875 
L 1259 0 
L 628 0 
L 628 4666 
z
" transform="scale(0.015625)"/>
       </defs>
       <use xlink:href="#DejaVuSans-33"/>
      </g>
     </g>
    </g>
    <g id="xtick_14">
     <g id="line2d_14">
      <g>
       <use xlink:href="#m78f39848a8" x="446.462145" y="241.798594" style="stroke: #000000; stroke-width: 0.8"/>
      </g>
     </g>
     <g id="text_14">
      <!-- Q -->
      <g transform="translate(442.526207 256.39625) scale(0.1 -0.1)">
       <defs>
        <path id="DejaVuSans-34" d="M 2522 4238 
Q 1834 4238 1429 3725 
Q 1025 3213 1025 2328 
Q 1025 1447 1429 934 
Q 1834 422 2522 422 
Q 3209 422 3611 934 
Q 4013 1447 4013 2328 
Q 4013 3213 3611 3725 
Q 3209 4238 2522 4238 
z
M 3406 84 
L 4238 -825 
L 3475 -825 
L 2784 -78 
Q 2681 -84 2626 -87 
Q 2572 -91 2522 -91 
Q 1538 -91 948 567 
Q 359 1225 359 2328 
Q 359 3434 948 4092 
Q 1538 4750 2522 4750 
Q 3503 4750 4090 4092 
Q 4678 3434 4678 2328 
Q 4678 1516 4351 937 
Q 4025 359 3406 84 
z
" transform="scale(0.015625)"/>
       </defs>
       <use xlink:href="#DejaVuSans-34"/>
      </g>
     </g>
    </g>
    <g id="xtick_15">
     <g id="line2d_15">
      <g>
       <use xlink:href="#m78f39848a8" x="474.643963" y="241.798594" style="stroke: #000000; stroke-width: 0.8"/>
      </g>
     </g>
     <g id="text_15">
      <!-- R -->
      <g transform="translate(471.169744 256.39625) scale(0.1 -0.1)">
       <defs>
        <path id="DejaVuSans-35" d="M 2841 2188 
Q 3044 2119 3236 1894 
Q 3428 1669 3622 1275 
L 4263 0 
L 3584 0 
L 2988 1197 
Q 2756 1666 2539 1819 
Q 2322 1972 1947 1972 
L 1259 1972 
L 1259 0 
L 628 0 
L 628 4666 
L 2053 4666 
Q 2853 4666 3247 4331 
Q 3641 3997 3641 3322 
Q 3641 2881 3436 2590 
Q 3231 2300 2841 2188 
z
M 1259 4147 
L 1259 2491 
L 2053 2491 
Q 2509 2491 2742 2702 
Q 2975 2913 2975 3322 
Q 2975 3731 2742 3939 
Q 2509 4147 2053 4147 
L 1259 4147 
z
" transform="scale(0.015625)"/>
       </defs>
       <use xlink:href="#DejaVuSans-35"/>
      </g>
     </g>
    </g>
    <g id="xtick_16">
     <g id="line2d_16">
      <g>
       <use xlink:href="#m78f39848a8" x="502.825781" y="241.798594" style="stroke: #000000; stroke-width: 0.8"/>
      </g>
     </g>
     <g id="text_16">
      <!-- S -->
      <g transform="translate(499.651563 256.39625) scale(0.1 -0.1)">
       <defs>
        <path id="DejaVuSans-36" d="M 3425 4513 
L 3425 3897 
Q 3066 4069 2747 4153 
Q 2428 4238 2131 4238 
Q 1616 4238 1336 4038 
Q 1056 3838 1056 3469 
Q 1056 3159 1242 3001 
Q 1428 2844 1947 2747 
L 2328 2669 
Q 3034 2534 3370 2195 
Q 3706 1856 3706 1288 
Q 3706 609 3251 259 
Q 2797 -91 1919 -91 
Q 1588 -91 1214 -16 
Q 841 59 441 206 
L 441 856 
Q 825 641 1194 531 
Q 1563 422 1919 422 
Q 2459 422 2753 634 
Q 3047 847 3047 1241 
Q 3047 1584 2836 1778 
Q 2625 1972 2144 2069 
L 1759 2144 
Q 1053 2284 737 2584 
Q 422 2884 422 3419 
Q 422 4038 858 4394 
Q 1294 4750 2059 4750 
Q 2388 4750 2728 4690 
Q 3069 4631 3425 4513 
z
" transform="scale(0.015625)"/>
       </defs>
       <use xlink:href="#DejaVuSans-36"/>
      </g>
     </g>
    </g>
    <g id="xtick_17">
     <g id="line2d_17">
      <g>
       <use xlink:href="#m78f39848a8" x="531.007599" y="241.798594" style="stroke: #000000; stroke-width: 0.8"/>
      </g>
     </g>
     <g id="text_17">
      <!-- T -->
      <g transform="translate(527.953693 256.39625) scale(0.1 -0.1)">
       <defs>
        <path id="DejaVuSans-37" d="M -19 4666 
L 3928 4666 
L 3928 4134 
L 2272 4134 
L 2272 0 
L 1638 0 
L 1638 4134 
L -19 4134 
L -19 4666 
z
" transform="scale(0.015625)"/>
       </defs>
       <use xlink:href="#DejaVuSans-37"/>
      </g>
     </g>
    </g>
    <g id="xtick_18">
     <g id="line2d_18">
      <g>
       <use xlink:href="#m78f39848a8" x="559.189418" y="241.798594" style="stroke: #000000; stroke-width: 0.8"/>
      </g>
     </g>
     <g id="text_18">
      <!-- V -->
      <g transform="translate(555.769105 256.39625) scale(0.1 -0.1)">
       <defs>
        <path id="DejaVuSans-39" d="M 1831 0 
L 50 4666 
L 709 4666 
L 2188 738 
L 3669 4666 
L 4325 4666 
L 2547 0 
L 1831 0 
z
" transform="scale(0.015625)"/>
       </defs>
       <use xlink:href="#DejaVuSans-39"/>
      </g>
     </g>
    </g>
    <g id="xtick_19">
     <g id="line2d_19">
      <g>
       <use xlink:href="#m78f39848a8" x="587.371236" y="241.798594" style="stroke: #000000; stroke-width: 0.8"/>
      </g>
     </g>
     <g id="text_19">
      <!-- W -->
      <g transform="translate(582.427486 256.39625) scale(0.1 -0.1)">
       <defs>
        <path id="DejaVuSans-3a" d="M 213 4666 
L 850 4666 
L 1831 722 
L 2809 4666 
L 3519 4666 
L 4500 722 
L 5478 4666 
L 6119 4666 
L 4947 0 
L 4153 0 
L 3169 4050 
L 2175 0 
L 1381 0 
L 213 4666 
z
" transform="scale(0.015625)"/>
       </defs>
       <use xlink:href="#DejaVuSans-3a"/>
      </g>
     </g>
    </g>
    <g id="xtick_20">
     <g id="line2d_20">
      <g>
       <use xlink:href="#m78f39848a8" x="615.553054" y="241.798594" style="stroke: #000000; stroke-width: 0.8"/>
      </g>
     </g>
     <g id="text_20">
      <!-- Y -->
      <g transform="translate(612.499148 256.39625) scale(0.1 -0.1)">
       <defs>
        <path id="DejaVuSans-3c" d="M -13 4666 
L 666 4666 
L 1959 2747 
L 3244 4666 
L 3922 4666 
L 2272 2222 
L 2272 0 
L 1638 0 
L 1638 2222 
L -13 4666 
z
" transform="scale(0.015625)"/>
       </defs>
       <use xlink:href="#DejaVuSans-3c"/>
      </g>
     </g>
    </g>
   </g>
   <g id="matplotlib.axis_2">
    <g id="ytick_1">
     <g id="line2d_21">
      <defs>
       <path id="m3df465bee0" d="M 0 0 
L -3.5 0 
" style="stroke: #000000; stroke-width: 0.8"/>
      </defs>
      <g>
       <use xlink:href="#m3df465bee0" x="40.925781" y="241.798594" style="stroke: #000000; stroke-width: 0.8"/>
      </g>
     </g>
     <g id="text_21">
      <!-- 0 -->
      <g transform="translate(27.563281 245.597422) scale(0.1 -0.1)">
       <defs>
        <path id="DejaVuSans-13" d="M 2034 4250 
Q 1547 4250 1301 3770 
Q 1056 3291 1056 2328 
Q 1056 1369 1301 889 
Q 1547 409 2034 409 
Q 2525 409 2770 889 
Q 3016 1369 3016 2328 
Q 3016 3291 2770 3770 
Q 2525 4250 2034 4250 
z
M 2034 4750 
Q 2819 4750 3233 4129 
Q 3647 3509 3647 2328 
Q 3647 1150 3233 529 
Q 2819 -91 2034 -91 
Q 1250 -91 836 529 
Q 422 1150 422 2328 
Q 422 3509 836 4129 
Q 1250 4750 2034 4750 
z
" transform="scale(0.015625)"/>
       </defs>
       <use xlink:href="#DejaVuSans-13"/>
      </g>
     </g>
    </g>
    <g id="ytick_2">
     <g id="line2d_22">
      <g>
       <use xlink:href="#m3df465bee0" x="40.925781" y="208.190832" style="stroke: #000000; stroke-width: 0.8"/>
      </g>
     </g>
     <g id="text_22">
      <!-- 2 -->
      <g transform="translate(27.563281 211.989661) scale(0.1 -0.1)">
       <defs>
        <path id="DejaVuSans-15" d="M 1228 531 
L 3431 531 
L 3431 0 
L 469 0 
L 469 531 
Q 828 903 1448 1529 
Q 2069 2156 2228 2338 
Q 2531 2678 2651 2914 
Q 2772 3150 2772 3378 
Q 2772 3750 2511 3984 
Q 2250 4219 1831 4219 
Q 1534 4219 1204 4116 
Q 875 4013 500 3803 
L 500 4441 
Q 881 4594 1212 4672 
Q 1544 4750 1819 4750 
Q 2544 4750 2975 4387 
Q 3406 4025 3406 3419 
Q 3406 3131 3298 2873 
Q 3191 2616 2906 2266 
Q 2828 2175 2409 1742 
Q 1991 1309 1228 531 
z
" transform="scale(0.015625)"/>
       </defs>
       <use xlink:href="#DejaVuSans-15"/>
      </g>
     </g>
    </g>
    <g id="ytick_3">
     <g id="line2d_23">
      <g>
       <use xlink:href="#m3df465bee0" x="40.925781" y="174.583071" style="stroke: #000000; stroke-width: 0.8"/>
      </g>
     </g>
     <g id="text_23">
      <!-- 4 -->
      <g transform="translate(27.563281 178.381899) scale(0.1 -0.1)">
       <defs>
        <path id="DejaVuSans-17" d="M 2419 4116 
L 825 1625 
L 2419 1625 
L 2419 4116 
z
M 2253 4666 
L 3047 4666 
L 3047 1625 
L 3713 1625 
L 3713 1100 
L 3047 1100 
L 3047 0 
L 2419 0 
L 2419 1100 
L 313 1100 
L 313 1709 
L 2253 4666 
z
" transform="scale(0.015625)"/>
       </defs>
       <use xlink:href="#DejaVuSans-17"/>
      </g>
     </g>
    </g>
    <g id="ytick_4">
     <g id="line2d_24">
      <g>
       <use xlink:href="#m3df465bee0" x="40.925781" y="140.97531" style="stroke: #000000; stroke-width: 0.8"/>
      </g>
     </g>
     <g id="text_24">
      <!-- 6 -->
      <g transform="translate(27.563281 144.774138) scale(0.1 -0.1)">
       <defs>
        <path id="DejaVuSans-19" d="M 2113 2584 
Q 1688 2584 1439 2293 
Q 1191 2003 1191 1497 
Q 1191 994 1439 701 
Q 1688 409 2113 409 
Q 2538 409 2786 701 
Q 3034 994 3034 1497 
Q 3034 2003 2786 2293 
Q 2538 2584 2113 2584 
z
M 3366 4563 
L 3366 3988 
Q 3128 4100 2886 4159 
Q 2644 4219 2406 4219 
Q 1781 4219 1451 3797 
Q 1122 3375 1075 2522 
Q 1259 2794 1537 2939 
Q 1816 3084 2150 3084 
Q 2853 3084 3261 2657 
Q 3669 2231 3669 1497 
Q 3669 778 3244 343 
Q 2819 -91 2113 -91 
Q 1303 -91 875 529 
Q 447 1150 447 2328 
Q 447 3434 972 4092 
Q 1497 4750 2381 4750 
Q 2619 4750 2861 4703 
Q 3103 4656 3366 4563 
z
" transform="scale(0.015625)"/>
       </defs>
       <use xlink:href="#DejaVuSans-19"/>
      </g>
     </g>
    </g>
    <g id="ytick_5">
     <g id="line2d_25">
      <g>
       <use xlink:href="#m3df465bee0" x="40.925781" y="107.367549" style="stroke: #000000; stroke-width: 0.8"/>
      </g>
     </g>
     <g id="text_25">
      <!-- 8 -->
      <g transform="translate(27.563281 111.166377) scale(0.1 -0.1)">
       <defs>
        <path id="DejaVuSans-1b" d="M 2034 2216 
Q 1584 2216 1326 1975 
Q 1069 1734 1069 1313 
Q 1069 891 1326 650 
Q 1584 409 2034 409 
Q 2484 409 2743 651 
Q 3003 894 3003 1313 
Q 3003 1734 2745 1975 
Q 2488 2216 2034 2216 
z
M 1403 2484 
Q 997 2584 770 2862 
Q 544 3141 544 3541 
Q 544 4100 942 4425 
Q 1341 4750 2034 4750 
Q 2731 4750 3128 4425 
Q 3525 4100 3525 3541 
Q 3525 3141 3298 2862 
Q 3072 2584 2669 2484 
Q 3125 2378 3379 2068 
Q 3634 1759 3634 1313 
Q 3634 634 3220 271 
Q 2806 -91 2034 -91 
Q 1263 -91 848 271 
Q 434 634 434 1313 
Q 434 1759 690 2068 
Q 947 2378 1403 2484 
z
M 1172 3481 
Q 1172 3119 1398 2916 
Q 1625 2713 2034 2713 
Q 2441 2713 2670 2916 
Q 2900 3119 2900 3481 
Q 2900 3844 2670 4047 
Q 2441 4250 2034 4250 
Q 1625 4250 1398 4047 
Q 1172 3844 1172 3481 
z
" transform="scale(0.015625)"/>
       </defs>
       <use xlink:href="#DejaVuSans-1b"/>
      </g>
     </g>
    </g>
    <g id="ytick_6">
     <g id="line2d_26">
      <g>
       <use xlink:href="#m3df465bee0" x="40.925781" y="73.759787" style="stroke: #000000; stroke-width: 0.8"/>
      </g>
     </g>
     <g id="text_26">
      <!-- 10 -->
      <g transform="translate(21.200781 77.558615) scale(0.1 -0.1)">
       <defs>
        <path id="DejaVuSans-14" d="M 794 531 
L 1825 531 
L 1825 4091 
L 703 3866 
L 703 4441 
L 1819 4666 
L 2450 4666 
L 2450 531 
L 3481 531 
L 3481 0 
L 794 0 
L 794 531 
z
" transform="scale(0.015625)"/>
       </defs>
       <use xlink:href="#DejaVuSans-14"/>
       <use xlink:href="#DejaVuSans-13" transform="translate(63.625 0)"/>
      </g>
     </g>
    </g>
    <g id="ytick_7">
     <g id="line2d_27">
      <g>
       <use xlink:href="#m3df465bee0" x="40.925781" y="40.152026" style="stroke: #000000; stroke-width: 0.8"/>
      </g>
     </g>
     <g id="text_27">
      <!-- 12 -->
      <g transform="translate(21.200781 43.950854) scale(0.1 -0.1)">
       <use xlink:href="#DejaVuSans-14"/>
       <use xlink:href="#DejaVuSans-15" transform="translate(63.625 0)"/>
      </g>
     </g>
    </g>
    <g id="text_28">
     <!-- % of amino acid mass (free convention) -->
     <g transform="translate(14.798437 230.614688) rotate(-90) scale(0.1 -0.1)">
      <defs>
       <path id="DejaVuSans-8" d="M 4653 2053 
Q 4381 2053 4226 1822 
Q 4072 1591 4072 1178 
Q 4072 772 4226 539 
Q 4381 306 4653 306 
Q 4919 306 5073 539 
Q 5228 772 5228 1178 
Q 5228 1588 5073 1820 
Q 4919 2053 4653 2053 
z
M 4653 2450 
Q 5147 2450 5437 2106 
Q 5728 1763 5728 1178 
Q 5728 594 5436 251 
Q 5144 -91 4653 -91 
Q 4153 -91 3862 251 
Q 3572 594 3572 1178 
Q 3572 1766 3864 2108 
Q 4156 2450 4653 2450 
z
M 1428 4353 
Q 1159 4353 1004 4120 
Q 850 3888 850 3481 
Q 850 3069 1003 2837 
Q 1156 2606 1428 2606 
Q 1700 2606 1854 2837 
Q 2009 3069 2009 3481 
Q 2009 3884 1853 4118 
Q 1697 4353 1428 4353 
z
M 4250 4750 
L 4750 4750 
L 1831 -91 
L 1331 -91 
L 4250 4750 
z
M 1428 4750 
Q 1922 4750 2215 4408 
Q 2509 4066 2509 3481 
Q 2509 2891 2217 2550 
Q 1925 2209 1428 2209 
Q 931 2209 642 2551 
Q 353 2894 353 3481 
Q 353 4063 643 4406 
Q 934 4750 1428 4750 
z
" transform="scale(0.015625)"/>
       <path id="DejaVuSans-3" transform="scale(0.015625)"/>
       <path id="DejaVuSans-52" d="M 1959 3097 
Q 1497 3097 1228 2736 
Q 959 2375 959 1747 
Q 959 1119 1226 758 
Q 1494 397 1959 397 
Q 2419 397 2687 759 
Q 2956 1122 2956 1747 
Q 2956 2369 2687 2733 
Q 2419 3097 1959 3097 
z
M 1959 3584 
Q 2709 3584 3137 3096 
Q 3566 2609 3566 1747 
Q 3566 888 3137 398 
Q 2709 -91 1959 -91 
Q 1206 -91 779 398 
Q 353 888 353 1747 
Q 353 2609 779 3096 
Q 1206 3584 1959 3584 
z
" transform="scale(0.015625)"/>
       <path id="DejaVuSans-49" d="M 2375 4863 
L 2375 4384 
L 1825 4384 
Q 1516 4384 1395 4259 
Q 1275 4134 1275 3809 
L 1275 3500 
L 2222 3500 
L 2222 3053 
L 1275 3053 
L 1275 0 
L 697 0 
L 697 3053 
L 147 3053 
L 147 3500 
L 697 3500 
L 697 3744 
Q 697 4328 969 4595 
Q 1241 4863 1831 4863 
L 2375 4863 
z
" transform="scale(0.015625)"/>
       <path id="DejaVuSans-44" d="M 2194 1759 
Q 1497 1759 1228 1600 
Q 959 1441 959 1056 
Q 959 750 1161 570 
Q 1363 391 1709 391 
Q 2188 391 2477 730 
Q 2766 1069 2766 1631 
L 2766 1759 
L 2194 1759 
z
M 3341 1997 
L 3341 0 
L 2766 0 
L 2766 531 
Q 2569 213 2275 61 
Q 1981 -91 1556 -91 
Q 1019 -91 701 211 
Q 384 513 384 1019 
Q 384 1609 779 1909 
Q 1175 2209 1959 2209 
L 2766 2209 
L 2766 2266 
Q 2766 2663 2505 2880 
Q 2244 3097 1772 3097 
Q 1472 3097 1187 3025 
Q 903 2953 641 2809 
L 641 3341 
Q 956 3463 1253 3523 
Q 1550 3584 1831 3584 
Q 2591 3584 2966 3190 
Q 3341 2797 3341 1997 
z
" transform="scale(0.015625)"/>
       <path id="DejaVuSans-50" d="M 3328 2828 
Q 3544 3216 3844 3400 
Q 4144 3584 4550 3584 
Q 5097 3584 5394 3201 
Q 5691 2819 5691 2113 
L 5691 0 
L 5113 0 
L 5113 2094 
Q 5113 2597 4934 2840 
Q 4756 3084 4391 3084 
Q 3944 3084 3684 2787 
Q 3425 2491 3425 1978 
L 3425 0 
L 2847 0 
L 2847 2094 
Q 2847 2600 2669 2842 
Q 2491 3084 2119 3084 
Q 1678 3084 1418 2786 
Q 1159 2488 1159 1978 
L 1159 0 
L 581 0 
L 581 3500 
L 1159 3500 
L 1159 2956 
Q 1356 3278 1631 3431 
Q 1906 3584 2284 3584 
Q 2666 3584 2933 3390 
Q 3200 3197 3328 2828 
z
" transform="scale(0.015625)"/>
       <path id="DejaVuSans-4c" d="M 603 3500 
L 1178 3500 
L 1178 0 
L 603 0 
L 603 3500 
z
M 603 4863 
L 1178 4863 
L 1178 4134 
L 603 4134 
L 603 4863 
z
" transform="scale(0.015625)"/>
       <path id="DejaVuSans-51" d="M 3513 2113 
L 3513 0 
L 2938 0 
L 2938 2094 
Q 2938 2591 2744 2837 
Q 2550 3084 2163 3084 
Q 1697 3084 1428 2787 
Q 1159 2491 1159 1978 
L 1159 0 
L 581 0 
L 581 3500 
L 1159 3500 
L 1159 2956 
Q 1366 3272 1645 3428 
Q 1925 3584 2291 3584 
Q 2894 3584 3203 3211 
Q 3513 2838 3513 2113 
z
" transform="scale(0.015625)"/>
       <path id="DejaVuSans-46" d="M 3122 3366 
L 3122 2828 
Q 2878 2963 2633 3030 
Q 2388 3097 2138 3097 
Q 1578 3097 1268 2742 
Q 959 2388 959 1747 
Q 959 1106 1268 751 
Q 1578 397 2138 397 
Q 2388 397 2633 464 
Q 2878 531 3122 666 
L 3122 134 
Q 2881 22 2623 -34 
Q 2366 -91 2075 -91 
Q 1284 -91 818 406 
Q 353 903 353 1747 
Q 353 2603 823 3093 
Q 1294 3584 2113 3584 
Q 2378 3584 2631 3529 
Q 2884 3475 3122 3366 
z
" transform="scale(0.015625)"/>
       <path id="DejaVuSans-47" d="M 2906 2969 
L 2906 4863 
L 3481 4863 
L 3481 0 
L 2906 0 
L 2906 525 
Q 2725 213 2448 61 
Q 2172 -91 1784 -91 
Q 1150 -91 751 415 
Q 353 922 353 1747 
Q 353 2572 751 3078 
Q 1150 3584 1784 3584 
Q 2172 3584 2448 3432 
Q 2725 3281 2906 2969 
z
M 947 1747 
Q 947 1113 1208 752 
Q 1469 391 1925 391 
Q 2381 391 2643 752 
Q 2906 1113 2906 1747 
Q 2906 2381 2643 2742 
Q 2381 3103 1925 3103 
Q 1469 3103 1208 2742 
Q 947 2381 947 1747 
z
" transform="scale(0.015625)"/>
       <path id="DejaVuSans-56" d="M 2834 3397 
L 2834 2853 
Q 2591 2978 2328 3040 
Q 2066 3103 1784 3103 
Q 1356 3103 1142 2972 
Q 928 2841 928 2578 
Q 928 2378 1081 2264 
Q 1234 2150 1697 2047 
L 1894 2003 
Q 2506 1872 2764 1633 
Q 3022 1394 3022 966 
Q 3022 478 2636 193 
Q 2250 -91 1575 -91 
Q 1294 -91 989 -36 
Q 684 19 347 128 
L 347 722 
Q 666 556 975 473 
Q 1284 391 1588 391 
Q 1994 391 2212 530 
Q 2431 669 2431 922 
Q 2431 1156 2273 1281 
Q 2116 1406 1581 1522 
L 1381 1569 
Q 847 1681 609 1914 
Q 372 2147 372 2553 
Q 372 3047 722 3315 
Q 1072 3584 1716 3584 
Q 2034 3584 2315 3537 
Q 2597 3491 2834 3397 
z
" transform="scale(0.015625)"/>
       <path id="DejaVuSans-b" d="M 1984 4856 
Q 1566 4138 1362 3434 
Q 1159 2731 1159 2009 
Q 1159 1288 1364 580 
Q 1569 -128 1984 -844 
L 1484 -844 
Q 1016 -109 783 600 
Q 550 1309 550 2009 
Q 550 2706 781 3412 
Q 1013 4119 1484 4856 
L 1984 4856 
z
" transform="scale(0.015625)"/>
       <path id="DejaVuSans-55" d="M 2631 2963 
Q 2534 3019 2420 3045 
Q 2306 3072 2169 3072 
Q 1681 3072 1420 2755 
Q 1159 2438 1159 1844 
L 1159 0 
L 581 0 
L 581 3500 
L 1159 3500 
L 1159 2956 
Q 1341 3275 1631 3429 
Q 1922 3584 2338 3584 
Q 2397 3584 2469 3576 
Q 2541 3569 2628 3553 
L 2631 2963 
z
" transform="scale(0.015625)"/>
       <path id="DejaVuSans-48" d="M 3597 1894 
L 3597 1613 
L 953 1613 
Q 991 1019 1311 708 
Q 1631 397 2203 397 
Q 2534 397 2845 478 
Q 3156 559 3463 722 
L 3463 178 
Q 3153 47 2828 -22 
Q 2503 -91 2169 -91 
Q 1331 -91 842 396 
Q 353 884 353 1716 
Q 353 2575 817 3079 
Q 1281 3584 2069 3584 
Q 2775 3584 3186 3129 
Q 3597 2675 3597 1894 
z
M 3022 2063 
Q 3016 2534 2758 2815 
Q 2500 3097 2075 3097 
Q 1594 3097 1305 2825 
Q 1016 2553 972 2059 
L 3022 2063 
z
" transform="scale(0.015625)"/>
       <path id="DejaVuSans-59" d="M 191 3500 
L 800 3500 
L 1894 563 
L 2988 3500 
L 3597 3500 
L 2284 0 
L 1503 0 
L 191 3500 
z
" transform="scale(0.015625)"/>
       <path id="DejaVuSans-57" d="M 1172 4494 
L 1172 3500 
L 2356 3500 
L 2356 3053 
L 1172 3053 
L 1172 1153 
Q 1172 725 1289 603 
Q 1406 481 1766 481 
L 2356 481 
L 2356 0 
L 1766 0 
Q 1100 0 847 248 
Q 594 497 594 1153 
L 594 3053 
L 172 3053 
L 172 3500 
L 594 3500 
L 594 4494 
L 1172 4494 
z
" transform="scale(0.015625)"/>
       <path id="DejaVuSans-c" d="M 513 4856 
L 1013 4856 
Q 1481 4119 1714 3412 
Q 1947 2706 1947 2009 
Q 1947 1309 1714 600 
Q 1481 -109 1013 -844 
L 513 -844 
Q 928 -128 1133 580 
Q 1338 1288 1338 2009 
Q 1338 2731 1133 3434 
Q 928 4138 513 4856 
z
" transform="scale(0.015625)"/>
      </defs>
      <use xlink:href="#DejaVuSans-8"/>
      <use xlink:href="#DejaVuSans-3" transform="translate(95.015625 0)"/>
      <use xlink:href="#DejaVuSans-52" transform="translate(126.796875 0)"/>
      <use xlink:href="#DejaVuSans-49" transform="translate(187.984375 0)"/>
      <use xlink:href="#DejaVuSans-3" transform="translate(223.1875 0)"/>
      <use xlink:href="#DejaVuSans-44" transform="translate(254.96875 0)"/>
      <use xlink:href="#DejaVuSans-50" transform="translate(316.25 0)"/>
      <use xlink:href="#DejaVuSans-4c" transform="translate(413.65625 0)"/>
      <use xlink:href="#DejaVuSans-51" transform="translate(441.4375 0)"/>
      <use xlink:href="#DejaVuSans-52" transform="translate(504.8125 0)"/>
      <use xlink:href="#DejaVuSans-3" transform="translate(566 0)"/>
      <use xlink:href="#DejaVuSans-44" transform="translate(597.78125 0)"/>
      <use xlink:href="#DejaVuSans-46" transform="translate(659.0625 0)"/>
      <use xlink:href="#DejaVuSans-4c" transform="translate(714.046875 0)"/>
      <use xlink:href="#DejaVuSans-47" transform="translate(741.828125 0)"/>
      <use xlink:href="#DejaVuSans-3" transform="translate(805.3125 0)"/>
      <use xlink:href="#DejaVuSans-50" transform="translate(837.09375 0)"/>
      <use xlink:href="#DejaVuSans-44" transform="translate(934.5 0)"/>
      <use xlink:href="#DejaVuSans-56" transform="translate(995.78125 0)"/>
      <use xlink:href="#DejaVuSans-56" transform="translate(1047.875 0)"/>
      <use xlink:href="#DejaVuSans-3" transform="translate(1099.96875 0)"/>
      <use xlink:href="#DejaVuSans-b" transform="translate(1131.75 0)"/>
      <use xlink:href="#DejaVuSans-49" transform="translate(1170.765625 0)"/>
      <use xlink:href="#DejaVuSans-55" transform="translate(1205.96875 0)"/>
      <use xlink:href="#DejaVuSans-48" transform="translate(1244.875 0)"/>
      <use xlink:href="#DejaVuSans-48" transform="translate(1306.40625 0)"/>
      <use xlink:href="#DejaVuSans-3" transform="translate(1367.9375 0)"/>
      <use xlink:href="#DejaVuSans-46" transform="translate(1399.71875 0)"/>
      <use xlink:href="#DejaVuSans-52" transform="translate(1454.703125 0)"/>
      <use xlink:href="#DejaVuSans-51" transform="translate(1515.890625 0)"/>
      <use xlink:href="#DejaVuSans-59" transform="translate(1579.265625 0)"/>
      <use xlink:href="#DejaVuSans-48" transform="translate(1638.453125 0)"/>
      <use xlink:href="#DejaVuSans-51" transform="translate(1699.984375 0)"/>
      <use xlink:href="#DejaVuSans-57" transform="translate(1763.359375 0)"/>
      <use xlink:href="#DejaVuSans-4c" transform="translate(1802.5625 0)"/>
      <use xlink:href="#DejaVuSans-52" transform="translate(1830.34375 0)"/>
      <use xlink:href="#DejaVuSans-51" transform="translate(1891.53125 0)"/>
      <use xlink:href="#DejaVuSans-c" transform="translate(1954.90625 0)"/>
     </g>
    </g>
   </g>
   <g id="LineCollection_1">
    <path d="M 74.462145 151.78343 
L 74.462145 150.041018 
" clip-path="url(#peeead35bc0)" style="fill: none; stroke: #000000; stroke-width: 1.5"/>
    <path d="M 102.643963 222.198284 
L 102.643963 221.683923 
" clip-path="url(#peeead35bc0)" style="fill: none; stroke: #000000; stroke-width: 1.5"/>
    <path d="M 130.825781 144.691289 
L 130.825781 143.290493 
" clip-path="url(#peeead35bc0)" style="fill: none; stroke: #000000; stroke-width: 1.5"/>
    <path d="M 159.007599 56.648173 
L 159.007599 52.571736 
" clip-path="url(#peeead35bc0)" style="fill: none; stroke: #000000; stroke-width: 1.5"/>
    <path d="M 187.189418 174.302013 
L 187.189418 172.729681 
" clip-path="url(#peeead35bc0)" style="fill: none; stroke: #000000; stroke-width: 1.5"/>
    <path d="M 215.371236 185.042811 
L 215.371236 183.944147 
" clip-path="url(#peeead35bc0)" style="fill: none; stroke: #000000; stroke-width: 1.5"/>
    <path d="M 243.553054 205.130304 
L 243.553054 204.256598 
" clip-path="url(#peeead35bc0)" style="fill: none; stroke: #000000; stroke-width: 1.5"/>
    <path d="M 271.734872 151.461315 
L 271.734872 150.33319 
" clip-path="url(#peeead35bc0)" style="fill: none; stroke: #000000; stroke-width: 1.5"/>
    <path d="M 299.91669 85.184789 
L 299.91669 83.060764 
" clip-path="url(#peeead35bc0)" style="fill: none; stroke: #000000; stroke-width: 1.5"/>
    <path d="M 328.098509 100.72969 
L 328.098509 97.784838 
" clip-path="url(#peeead35bc0)" style="fill: none; stroke: #000000; stroke-width: 1.5"/>
    <path d="M 356.280327 196.834186 
L 356.280327 195.126285 
" clip-path="url(#peeead35bc0)" style="fill: none; stroke: #000000; stroke-width: 1.5"/>
    <path d="M 384.462145 181.485865 
L 384.462145 180.70343 
" clip-path="url(#peeead35bc0)" style="fill: none; stroke: #000000; stroke-width: 1.5"/>
    <path d="M 412.643963 170.976069 
L 412.643963 167.848522 
" clip-path="url(#peeead35bc0)" style="fill: none; stroke: #000000; stroke-width: 1.5"/>
    <path d="M 440.825781 164.51073 
L 440.825781 162.381538 
" clip-path="url(#peeead35bc0)" style="fill: none; stroke: #000000; stroke-width: 1.5"/>
    <path d="M 469.007599 125.703367 
L 469.007599 124.327132 
" clip-path="url(#peeead35bc0)" style="fill: none; stroke: #000000; stroke-width: 1.5"/>
    <path d="M 497.189418 162.487132 
L 497.189418 160.970472 
" clip-path="url(#peeead35bc0)" style="fill: none; stroke: #000000; stroke-width: 1.5"/>
    <path d="M 525.371236 157.391667 
L 525.371236 155.152354 
" clip-path="url(#peeead35bc0)" style="fill: none; stroke: #000000; stroke-width: 1.5"/>
    <path d="M 553.553054 143.239592 
L 553.553054 140.085978 
" clip-path="url(#peeead35bc0)" style="fill: none; stroke: #000000; stroke-width: 1.5"/>
    <path d="M 581.734872 216.223756 
L 581.734872 215.234816 
" clip-path="url(#peeead35bc0)" style="fill: none; stroke: #000000; stroke-width: 1.5"/>
    <path d="M 609.91669 177.223002 
L 609.91669 176.057156 
" clip-path="url(#peeead35bc0)" style="fill: none; stroke: #000000; stroke-width: 1.5"/>
   </g>
   <g id="line2d_28">
    <defs>
     <path id="mccf70b5c02" d="M 2 0 
L -2 -0 
" style="stroke: #000000"/>
    </defs>
    <g clip-path="url(#peeead35bc0)">
     <use xlink:href="#mccf70b5c02" x="74.462145" y="151.78343" style="fill: #1f77b4; stroke: #000000"/>
     <use xlink:href="#mccf70b5c02" x="102.643963" y="222.198284" style="fill: #1f77b4; stroke: #000000"/>
     <use xlink:href="#mccf70b5c02" x="130.825781" y="144.691289" style="fill: #1f77b4; stroke: #000000"/>
     <use xlink:href="#mccf70b5c02" x="159.007599" y="56.648173" style="fill: #1f77b4; stroke: #000000"/>
     <use xlink:href="#mccf70b5c02" x="187.189418" y="174.302013" style="fill: #1f77b4; stroke: #000000"/>
     <use xlink:href="#mccf70b5c02" x="215.371236" y="185.042811" style="fill: #1f77b4; stroke: #000000"/>
     <use xlink:href="#mccf70b5c02" x="243.553054" y="205.130304" style="fill: #1f77b4; stroke: #000000"/>
     <use xlink:href="#mccf70b5c02" x="271.734872" y="151.461315" style="fill: #1f77b4; stroke: #000000"/>
     <use xlink:href="#mccf70b5c02" x="299.91669" y="85.184789" style="fill: #1f77b4; stroke: #000000"/>
     <use xlink:href="#mccf70b5c02" x="328.098509" y="100.72969" style="fill: #1f77b4; stroke: #000000"/>
     <use xlink:href="#mccf70b5c02" x="356.280327" y="196.834186" style="fill: #1f77b4; stroke: #000000"/>
     <use xlink:href="#mccf70b5c02" x="384.462145" y="181.485865" style="fill: #1f77b4; stroke: #000000"/>
     <use xlink:href="#mccf70b5c02" x="412.643963" y="170.976069" style="fill: #1f77b4; stroke: #000000"/>
     <use xlink:href="#mccf70b5c02" x="440.825781" y="164.51073" style="fill: #1f77b4; stroke: #000000"/>
     <use xlink:href="#mccf70b5c02" x="469.007599" y="125.703367" style="fill: #1f77b4; stroke: #000000"/>
     <use xlink:href="#mccf70b5c02" x="497.189418" y="162.487132" style="fill: #1f77b4; stroke: #000000"/>
     <use xlink:href="#mccf70b5c02" x="525.371236" y="157.391667" style="fill: #1f77b4; stroke: #000000"/>
     <use xlink:href="#mccf70b5c02" x="553.553054" y="143.239592" style="fill: #1f77b4; stroke: #000000"/>
     <use xlink:href="#mccf70b5c02" x="581.734872" y="216.223756" style="fill: #1f77b4; stroke: #000000"/>
     <use xlink:href="#mccf70b5c02" x="609.91669" y="177.223002" style="fill: #1f77b4; stroke: #000000"/>
    </g>
   </g>
   <g id="line2d_29">
    <g clip-path="url(#peeead35bc0)">
     <use xlink:href="#mccf70b5c02" x="74.462145" y="150.041018" style="fill: #1f77b4; stroke: #000000"/>
     <use xlink:href="#mccf70b5c02" x="102.643963" y="221.683923" style="fill: #1f77b4; stroke: #000000"/>
     <use xlink:href="#mccf70b5c02" x="130.825781" y="143.290493" style="fill: #1f77b4; stroke: #000000"/>
     <use xlink:href="#mccf70b5c02" x="159.007599" y="52.571736" style="fill: #1f77b4; stroke: #000000"/>
     <use xlink:href="#mccf70b5c02" x="187.189418" y="172.729681" style="fill: #1f77b4; stroke: #000000"/>
     <use xlink:href="#mccf70b5c02" x="215.371236" y="183.944147" style="fill: #1f77b4; stroke: #000000"/>
     <use xlink:href="#mccf70b5c02" x="243.553054" y="204.256598" style="fill: #1f77b4; stroke: #000000"/>
     <use xlink:href="#mccf70b5c02" x="271.734872" y="150.33319" style="fill: #1f77b4; stroke: #000000"/>
     <use xlink:href="#mccf70b5c02" x="299.91669" y="83.060764" style="fill: #1f77b4; stroke: #000000"/>
     <use xlink:href="#mccf70b5c02" x="328.098509" y="97.784838" style="fill: #1f77b4; stroke: #000000"/>
     <use xlink:href="#mccf70b5c02" x="356.280327" y="195.126285" style="fill: #1f77b4; stroke: #000000"/>
     <use xlink:href="#mccf70b5c02" x="384.462145" y="180.70343" style="fill: #1f77b4; stroke: #000000"/>
     <use xlink:href="#mccf70b5c02" x="412.643963" y="167.848522" style="fill: #1f77b4; stroke: #000000"/>
     <use xlink:href="#mccf70b5c02" x="440.825781" y="162.381538" style="fill: #1f77b4; stroke: #000000"/>
     <use xlink:href="#mccf70b5c02" x="469.007599" y="124.327132" style="fill: #1f77b4; stroke: #000000"/>
     <use xlink:href="#mccf70b5c02" x="497.189418" y="160.970472" style="fill: #1f77b4; stroke: #000000"/>
     <use xlink:href="#mccf70b5c02" x="525.371236" y="155.152354" style="fill: #1f77b4; stroke: #000000"/>
     <use xlink:href="#mccf70b5c02" x="553.553054" y="140.085978" style="fill: #1f77b4; stroke: #000000"/>
     <use xlink:href="#mccf70b5c02" x="581.734872" y="215.234816" style="fill: #1f77b4; stroke: #000000"/>
     <use xlink:href="#mccf70b5c02" x="609.91669" y="176.057156" style="fill: #1f77b4; stroke: #000000"/>
    </g>
   </g>
   <g id="LineCollection_2">
    <path d="M 85.734872 154.629886 
L 85.734872 152.442672 
" clip-path="url(#peeead35bc0)" style="fill: none; stroke: #000000; stroke-width: 1.5"/>
    <path d="M 113.91669 223.833203 
L 113.91669 223.159884 
" clip-path="url(#peeead35bc0)" style="fill: none; stroke: #000000; stroke-width: 1.5"/>
    <path d="M 142.098509 142.322206 
L 142.098509 140.293546 
" clip-path="url(#peeead35bc0)" style="fill: none; stroke: #000000; stroke-width: 1.5"/>
    <path d="M 170.280327 36.222499 
L 170.280327 30.598594 
" clip-path="url(#peeead35bc0)" style="fill: none; stroke: #000000; stroke-width: 1.5"/>
    <path d="M 198.462145 180.221206 
L 198.462145 178.370624 
" clip-path="url(#peeead35bc0)" style="fill: none; stroke: #000000; stroke-width: 1.5"/>
    <path d="M 226.643963 191.833141 
L 226.643963 190.397188 
" clip-path="url(#peeead35bc0)" style="fill: none; stroke: #000000; stroke-width: 1.5"/>
    <path d="M 254.825781 208.158151 
L 254.825781 207.242165 
" clip-path="url(#peeead35bc0)" style="fill: none; stroke: #000000; stroke-width: 1.5"/>
    <path d="M 283.007599 152.776802 
L 283.007599 151.251629 
" clip-path="url(#peeead35bc0)" style="fill: none; stroke: #000000; stroke-width: 1.5"/>
    <path d="M 311.189418 75.931669 
L 311.189418 73.535916 
" clip-path="url(#peeead35bc0)" style="fill: none; stroke: #000000; stroke-width: 1.5"/>
    <path d="M 339.371236 107.115596 
L 339.371236 103.465656 
" clip-path="url(#peeead35bc0)" style="fill: none; stroke: #000000; stroke-width: 1.5"/>
    <path d="M 367.553054 197.333949 
L 367.553054 194.983236 
" clip-path="url(#peeead35bc0)" style="fill: none; stroke: #000000; stroke-width: 1.5"/>
    <path d="M 395.734872 182.021685 
L 395.734872 181.000245 
" clip-path="url(#peeead35bc0)" style="fill: none; stroke: #000000; stroke-width: 1.5"/>
    <path d="M 423.91669 172.90634 
L 423.91669 168.486003 
" clip-path="url(#peeead35bc0)" style="fill: none; stroke: #000000; stroke-width: 1.5"/>
    <path d="M 452.098509 164.305387 
L 452.098509 161.313478 
" clip-path="url(#peeead35bc0)" style="fill: none; stroke: #000000; stroke-width: 1.5"/>
    <path d="M 480.280327 124.564565 
L 480.280327 122.726698 
" clip-path="url(#peeead35bc0)" style="fill: none; stroke: #000000; stroke-width: 1.5"/>
    <path d="M 508.462145 164.148469 
L 508.462145 161.974356 
" clip-path="url(#peeead35bc0)" style="fill: none; stroke: #000000; stroke-width: 1.5"/>
    <path d="M 536.643963 157.670696 
L 536.643963 154.583851 
" clip-path="url(#peeead35bc0)" style="fill: none; stroke: #000000; stroke-width: 1.5"/>
    <path d="M 564.825781 147.619399 
L 564.825781 142.982018 
" clip-path="url(#peeead35bc0)" style="fill: none; stroke: #000000; stroke-width: 1.5"/>
    <path d="M 593.007599 217.494859 
L 593.007599 216.12253 
" clip-path="url(#peeead35bc0)" style="fill: none; stroke: #000000; stroke-width: 1.5"/>
    <path d="M 621.189418 178.112937 
L 621.189418 176.542839 
" clip-path="url(#peeead35bc0)" style="fill: none; stroke: #000000; stroke-width: 1.5"/>
   </g>
   <g id="line2d_30">
    <g clip-path="url(#peeead35bc0)">
     <use xlink:href="#mccf70b5c02" x="85.734872" y="154.629886" style="fill: #1f77b4; stroke: #000000"/>
     <use xlink:href="#mccf70b5c02" x="113.91669" y="223.833203" style="fill: #1f77b4; stroke: #000000"/>
     <use xlink:href="#mccf70b5c02" x="142.098509" y="142.322206" style="fill: #1f77b4; stroke: #000000"/>
     <use xlink:href="#mccf70b5c02" x="170.280327" y="36.222499" style="fill: #1f77b4; stroke: #000000"/>
     <use xlink:href="#mccf70b5c02" x="198.462145" y="180.221206" style="fill: #1f77b4; stroke: #000000"/>
     <use xlink:href="#mccf70b5c02" x="226.643963" y="191.833141" style="fill: #1f77b4; stroke: #000000"/>
     <use xlink:href="#mccf70b5c02" x="254.825781" y="208.158151" style="fill: #1f77b4; stroke: #000000"/>
     <use xlink:href="#mccf70b5c02" x="283.007599" y="152.776802" style="fill: #1f77b4; stroke: #000000"/>
     <use xlink:href="#mccf70b5c02" x="311.189418" y="75.931669" style="fill: #1f77b4; stroke: #000000"/>
     <use xlink:href="#mccf70b5c02" x="339.371236" y="107.115596" style="fill: #1f77b4; stroke: #000000"/>
     <use xlink:href="#mccf70b5c02" x="367.553054" y="197.333949" style="fill: #1f77b4; stroke: #000000"/>
     <use xlink:href="#mccf70b5c02" x="395.734872" y="182.021685" style="fill: #1f77b4; stroke: #000000"/>
     <use xlink:href="#mccf70b5c02" x="423.91669" y="172.90634" style="fill: #1f77b4; stroke: #000000"/>
     <use xlink:href="#mccf70b5c02" x="452.098509" y="164.305387" style="fill: #1f77b4; stroke: #000000"/>
     <use xlink:href="#mccf70b5c02" x="480.280327" y="124.564565" style="fill: #1f77b4; stroke: #000000"/>
     <use xlink:href="#mccf70b5c02" x="508.462145" y="164.148469" style="fill: #1f77b4; stroke: #000000"/>
     <use xlink:href="#mccf70b5c02" x="536.643963" y="157.670696" style="fill: #1f77b4; stroke: #000000"/>
     <use xlink:href="#mccf70b5c02" x="564.825781" y="147.619399" style="fill: #1f77b4; stroke: #000000"/>
     <use xlink:href="#mccf70b5c02" x="593.007599" y="217.494859" style="fill: #1f77b4; stroke: #000000"/>
     <use xlink:href="#mccf70b5c02" x="621.189418" y="178.112937" style="fill: #1f77b4; stroke: #000000"/>
    </g>
   </g>
   <g id="line2d_31">
    <g clip-path="url(#peeead35bc0)">
     <use xlink:href="#mccf70b5c02" x="85.734872" y="152.442672" style="fill: #1f77b4; stroke: #000000"/>
     <use xlink:href="#mccf70b5c02" x="113.91669" y="223.159884" style="fill: #1f77b4; stroke: #000000"/>
     <use xlink:href="#mccf70b5c02" x="142.098509" y="140.293546" style="fill: #1f77b4; stroke: #000000"/>
     <use xlink:href="#mccf70b5c02" x="170.280327" y="30.598594" style="fill: #1f77b4; stroke: #000000"/>
     <use xlink:href="#mccf70b5c02" x="198.462145" y="178.370624" style="fill: #1f77b4; stroke: #000000"/>
     <use xlink:href="#mccf70b5c02" x="226.643963" y="190.397188" style="fill: #1f77b4; stroke: #000000"/>
     <use xlink:href="#mccf70b5c02" x="254.825781" y="207.242165" style="fill: #1f77b4; stroke: #000000"/>
     <use xlink:href="#mccf70b5c02" x="283.007599" y="151.251629" style="fill: #1f77b4; stroke: #000000"/>
     <use xlink:href="#mccf70b5c02" x="311.189418" y="73.535916" style="fill: #1f77b4; stroke: #000000"/>
     <use xlink:href="#mccf70b5c02" x="339.371236" y="103.465656" style="fill: #1f77b4; stroke: #000000"/>
     <use xlink:href="#mccf70b5c02" x="367.553054" y="194.983236" style="fill: #1f77b4; stroke: #000000"/>
     <use xlink:href="#mccf70b5c02" x="395.734872" y="181.000245" style="fill: #1f77b4; stroke: #000000"/>
     <use xlink:href="#mccf70b5c02" x="423.91669" y="168.486003" style="fill: #1f77b4; stroke: #000000"/>
     <use xlink:href="#mccf70b5c02" x="452.098509" y="161.313478" style="fill: #1f77b4; stroke: #000000"/>
     <use xlink:href="#mccf70b5c02" x="480.280327" y="122.726698" style="fill: #1f77b4; stroke: #000000"/>
     <use xlink:href="#mccf70b5c02" x="508.462145" y="161.974356" style="fill: #1f77b4; stroke: #000000"/>
     <use xlink:href="#mccf70b5c02" x="536.643963" y="154.583851" style="fill: #1f77b4; stroke: #000000"/>
     <use xlink:href="#mccf70b5c02" x="564.825781" y="142.982018" style="fill: #1f77b4; stroke: #000000"/>
     <use xlink:href="#mccf70b5c02" x="593.007599" y="216.12253" style="fill: #1f77b4; stroke: #000000"/>
     <use xlink:href="#mccf70b5c02" x="621.189418" y="176.542839" style="fill: #1f77b4; stroke: #000000"/>
    </g>
   </g>
   <g id="patch_43">
    <path d="M 40.925781 241.798594 
L 40.925781 20.038594 
" style="fill: none; stroke: #000000; stroke-width: 0.8; stroke-linejoin: miter; stroke-linecap: square"/>
   </g>
   <g id="patch_44">
    <path d="M 654.725781 241.798594 
L 654.725781 20.038594 
" style="fill: none; stroke: #000000; stroke-width: 0.8; stroke-linejoin: miter; stroke-linecap: square"/>
   </g>
   <g id="patch_45">
    <path d="M 40.925781 241.798594 
L 654.725781 241.798594 
" style="fill: none; stroke: #000000; stroke-width: 0.8; stroke-linejoin: miter; stroke-linecap: square"/>
   </g>
   <g id="patch_46">
    <path d="M 40.925781 20.038594 
L 654.725781 20.038594 
" style="fill: none; stroke: #000000; stroke-width: 0.8; stroke-linejoin: miter; stroke-linecap: square"/>
   </g>
   <g id="text_29">
    <!-- Type I: combined (D58) and contractile profiles; error bars = 95 % median uncertainty (amino_acid_profiles.tsv, uncertainty_intervals.tsv) -->
    <g transform="translate(37.264609 14.038594) scale(0.09 -0.09)">
     <defs>
      <path id="DejaVuSans-5c" d="M 2059 -325 
Q 1816 -950 1584 -1140 
Q 1353 -1331 966 -1331 
L 506 -1331 
L 506 -850 
L 844 -850 
Q 1081 -850 1212 -737 
Q 1344 -625 1503 -206 
L 1606 56 
L 191 3500 
L 800 3500 
L 1894 763 
L 2988 3500 
L 3597 3500 
L 2059 -325 
z
" transform="scale(0.015625)"/>
      <path id="DejaVuSans-53" d="M 1159 525 
L 1159 -1331 
L 581 -1331 
L 581 3500 
L 1159 3500 
L 1159 2969 
Q 1341 3281 1617 3432 
Q 1894 3584 2278 3584 
Q 2916 3584 3314 3078 
Q 3713 2572 3713 1747 
Q 3713 922 3314 415 
Q 2916 -91 2278 -91 
Q 1894 -91 1617 61 
Q 1341 213 1159 525 
z
M 3116 1747 
Q 3116 2381 2855 2742 
Q 2594 3103 2138 3103 
Q 1681 3103 1420 2742 
Q 1159 2381 1159 1747 
Q 1159 1113 1420 752 
Q 1681 391 2138 391 
Q 2594 391 2855 752 
Q 3116 1113 3116 1747 
z
" transform="scale(0.015625)"/>
      <path id="DejaVuSans-1d" d="M 750 794 
L 1409 794 
L 1409 0 
L 750 0 
L 750 794 
z
M 750 3309 
L 1409 3309 
L 1409 2516 
L 750 2516 
L 750 3309 
z
" transform="scale(0.015625)"/>
      <path id="DejaVuSans-45" d="M 3116 1747 
Q 3116 2381 2855 2742 
Q 2594 3103 2138 3103 
Q 1681 3103 1420 2742 
Q 1159 2381 1159 1747 
Q 1159 1113 1420 752 
Q 1681 391 2138 391 
Q 2594 391 2855 752 
Q 3116 1113 3116 1747 
z
M 1159 2969 
Q 1341 3281 1617 3432 
Q 1894 3584 2278 3584 
Q 2916 3584 3314 3078 
Q 3713 2572 3713 1747 
Q 3713 922 3314 415 
Q 2916 -91 2278 -91 
Q 1894 -91 1617 61 
Q 1341 213 1159 525 
L 1159 0 
L 581 0 
L 581 4863 
L 1159 4863 
L 1159 2969 
z
" transform="scale(0.015625)"/>
      <path id="DejaVuSans-18" d="M 691 4666 
L 3169 4666 
L 3169 4134 
L 1269 4134 
L 1269 2991 
Q 1406 3038 1543 3061 
Q 1681 3084 1819 3084 
Q 2600 3084 3056 2656 
Q 3513 2228 3513 1497 
Q 3513 744 3044 326 
Q 2575 -91 1722 -91 
Q 1428 -91 1123 -41 
Q 819 9 494 109 
L 494 744 
Q 775 591 1075 516 
Q 1375 441 1709 441 
Q 2250 441 2565 725 
Q 2881 1009 2881 1497 
Q 2881 1984 2565 2268 
Q 2250 2553 1709 2553 
Q 1456 2553 1204 2497 
Q 953 2441 691 2322 
L 691 4666 
z
" transform="scale(0.015625)"/>
      <path id="DejaVuSans-4f" d="M 603 4863 
L 1178 4863 
L 1178 0 
L 603 0 
L 603 4863 
z
" transform="scale(0.015625)"/>
      <path id="DejaVuSans-13af" d="M 3431 3500 
L 3431 0 
L 2853 0 
L 2853 3053 
L 1275 3053 
L 1275 0 
L 697 0 
L 697 3053 
L 147 3053 
L 147 3500 
L 697 3500 
L 697 3744 
Q 697 4316 967 4589 
Q 1238 4863 1797 4863 
L 2375 4863 
L 2375 4384 
L 1825 4384 
Q 1516 4384 1395 4259 
Q 1275 4134 1275 3809 
L 1275 3500 
L 3431 3500 
z
M 2853 4856 
L 3431 4856 
L 3431 4128 
L 2853 4128 
L 2853 4856 
z
" transform="scale(0.015625)"/>
      <path id="DejaVuSans-1e" d="M 750 3309 
L 1409 3309 
L 1409 2516 
L 750 2516 
L 750 3309 
z
M 750 794 
L 1409 794 
L 1409 256 
L 897 -744 
L 494 -744 
L 750 256 
L 750 794 
z
" transform="scale(0.015625)"/>
      <path id="DejaVuSans-20" d="M 678 2906 
L 4684 2906 
L 4684 2381 
L 678 2381 
L 678 2906 
z
M 678 1631 
L 4684 1631 
L 4684 1100 
L 678 1100 
L 678 1631 
z
" transform="scale(0.015625)"/>
      <path id="DejaVuSans-1c" d="M 703 97 
L 703 672 
Q 941 559 1184 500 
Q 1428 441 1663 441 
Q 2288 441 2617 861 
Q 2947 1281 2994 2138 
Q 2813 1869 2534 1725 
Q 2256 1581 1919 1581 
Q 1219 1581 811 2004 
Q 403 2428 403 3163 
Q 403 3881 828 4315 
Q 1253 4750 1959 4750 
Q 2769 4750 3195 4129 
Q 3622 3509 3622 2328 
Q 3622 1225 3098 567 
Q 2575 -91 1691 -91 
Q 1453 -91 1209 -44 
Q 966 3 703 97 
z
M 1959 2075 
Q 2384 2075 2632 2365 
Q 2881 2656 2881 3163 
Q 2881 3666 2632 3958 
Q 2384 4250 1959 4250 
Q 1534 4250 1286 3958 
Q 1038 3666 1038 3163 
Q 1038 2656 1286 2365 
Q 1534 2075 1959 2075 
z
" transform="scale(0.015625)"/>
      <path id="DejaVuSans-58" d="M 544 1381 
L 544 3500 
L 1119 3500 
L 1119 1403 
Q 1119 906 1312 657 
Q 1506 409 1894 409 
Q 2359 409 2629 706 
Q 2900 1003 2900 1516 
L 2900 3500 
L 3475 3500 
L 3475 0 
L 2900 0 
L 2900 538 
Q 2691 219 2414 64 
Q 2138 -91 1772 -91 
Q 1169 -91 856 284 
Q 544 659 544 1381 
z
M 1991 3584 
L 1991 3584 
z
" transform="scale(0.015625)"/>
      <path id="DejaVuSans-42" d="M 3263 -1063 
L 3263 -1509 
L -63 -1509 
L -63 -1063 
L 3263 -1063 
z
" transform="scale(0.015625)"/>
      <path id="DejaVuSans-11" d="M 684 794 
L 1344 794 
L 1344 0 
L 684 0 
L 684 794 
z
" transform="scale(0.015625)"/>
      <path id="DejaVuSans-f" d="M 750 794 
L 1409 794 
L 1409 256 
L 897 -744 
L 494 -744 
L 750 256 
L 750 794 
z
" transform="scale(0.015625)"/>
     </defs>
     <use xlink:href="#DejaVuSans-37"/>
     <use xlink:href="#DejaVuSans-5c" transform="translate(45.5 0)"/>
     <use xlink:href="#DejaVuSans-53" transform="translate(104.6875 0)"/>
     <use xlink:href="#DejaVuSans-48" transform="translate(168.171875 0)"/>
     <use xlink:href="#DejaVuSans-3" transform="translate(229.703125 0)"/>
     <use xlink:href="#DejaVuSans-2c" transform="translate(261.484375 0)"/>
     <use xlink:href="#DejaVuSans-1d" transform="translate(290.984375 0)"/>
     <use xlink:href="#DejaVuSans-3" transform="translate(324.671875 0)"/>
     <use xlink:href="#DejaVuSans-46" transform="translate(356.453125 0)"/>
     <use xlink:href="#DejaVuSans-52" transform="translate(411.4375 0)"/>
     <use xlink:href="#DejaVuSans-50" transform="translate(472.625 0)"/>
     <use xlink:href="#DejaVuSans-45" transform="translate(570.03125 0)"/>
     <use xlink:href="#DejaVuSans-4c" transform="translate(633.515625 0)"/>
     <use xlink:href="#DejaVuSans-51" transform="translate(661.296875 0)"/>
     <use xlink:href="#DejaVuSans-48" transform="translate(724.671875 0)"/>
     <use xlink:href="#DejaVuSans-47" transform="translate(786.203125 0)"/>
     <use xlink:href="#DejaVuSans-3" transform="translate(849.6875 0)"/>
     <use xlink:href="#DejaVuSans-b" transform="translate(881.46875 0)"/>
     <use xlink:href="#DejaVuSans-27" transform="translate(920.484375 0)"/>
     <use xlink:href="#DejaVuSans-18" transform="translate(997.484375 0)"/>
     <use xlink:href="#DejaVuSans-1b" transform="translate(1061.109375 0)"/>
     <use xlink:href="#DejaVuSans-c" transform="translate(1124.734375 0)"/>
     <use xlink:href="#DejaVuSans-3" transform="translate(1163.75 0)"/>
     <use xlink:href="#DejaVuSans-44" transform="translate(1195.53125 0)"/>
     <use xlink:href="#DejaVuSans-51" transform="translate(1256.8125 0)"/>
     <use xlink:href="#DejaVuSans-47" transform="translate(1320.1875 0)"/>
     <use xlink:href="#DejaVuSans-3" transform="translate(1383.671875 0)"/>
     <use xlink:href="#DejaVuSans-46" transform="translate(1415.453125 0)"/>
     <use xlink:href="#DejaVuSans-52" transform="translate(1470.4375 0)"/>
     <use xlink:href="#DejaVuSans-51" transform="translate(1531.625 0)"/>
     <use xlink:href="#DejaVuSans-57" transform="translate(1595 0)"/>
     <use xlink:href="#DejaVuSans-55" transform="translate(1634.203125 0)"/>
     <use xlink:href="#DejaVuSans-44" transform="translate(1675.3125 0)"/>
     <use xlink:href="#DejaVuSans-46" transform="translate(1736.59375 0)"/>
     <use xlink:href="#DejaVuSans-57" transform="translate(1791.578125 0)"/>
     <use xlink:href="#DejaVuSans-4c" transform="translate(1830.78125 0)"/>
     <use xlink:href="#DejaVuSans-4f" transform="translate(1858.5625 0)"/>
     <use xlink:href="#DejaVuSans-48" transform="translate(1886.34375 0)"/>
     <use xlink:href="#DejaVuSans-3" transform="translate(1947.875 0)"/>
     <use xlink:href="#DejaVuSans-53" transform="translate(1979.65625 0)"/>
     <use xlink:href="#DejaVuSans-55" transform="translate(2043.140625 0)"/>
     <use xlink:href="#DejaVuSans-52" transform="translate(2082.046875 0)"/>
     <use xlink:href="#DejaVuSans-13af" transform="translate(2143.234375 0)"/>
     <use xlink:href="#DejaVuSans-4f" transform="translate(2206.21875 0)"/>
     <use xlink:href="#DejaVuSans-48" transform="translate(2234 0)"/>
     <use xlink:href="#DejaVuSans-56" transform="translate(2295.53125 0)"/>
     <use xlink:href="#DejaVuSans-1e" transform="translate(2347.625 0)"/>
     <use xlink:href="#DejaVuSans-3" transform="translate(2381.3125 0)"/>
     <use xlink:href="#DejaVuSans-48" transform="translate(2413.09375 0)"/>
     <use xlink:href="#DejaVuSans-55" transform="translate(2474.625 0)"/>
     <use xlink:href="#DejaVuSans-55" transform="translate(2513.984375 0)"/>
     <use xlink:href="#DejaVuSans-52" transform="translate(2552.890625 0)"/>
     <use xlink:href="#DejaVuSans-55" transform="translate(2614.078125 0)"/>
     <use xlink:href="#DejaVuSans-3" transform="translate(2655.1875 0)"/>
     <use xlink:href="#DejaVuSans-45" transform="translate(2686.96875 0)"/>
     <use xlink:href="#DejaVuSans-44" transform="translate(2750.453125 0)"/>
     <use xlink:href="#DejaVuSans-55" transform="translate(2811.734375 0)"/>
     <use xlink:href="#DejaVuSans-56" transform="translate(2852.84375 0)"/>
     <use xlink:href="#DejaVuSans-3" transform="translate(2904.9375 0)"/>
     <use xlink:href="#DejaVuSans-20" transform="translate(2936.71875 0)"/>
     <use xlink:href="#DejaVuSans-3" transform="translate(3020.515625 0)"/>
     <use xlink:href="#DejaVuSans-1c" transform="translate(3052.296875 0)"/>
     <use xlink:href="#DejaVuSans-18" transform="translate(3115.921875 0)"/>
     <use xlink:href="#DejaVuSans-3" transform="translate(3179.546875 0)"/>
     <use xlink:href="#DejaVuSans-8" transform="translate(3211.328125 0)"/>
     <use xlink:href="#DejaVuSans-3" transform="translate(3306.34375 0)"/>
     <use xlink:href="#DejaVuSans-50" transform="translate(3338.125 0)"/>
     <use xlink:href="#DejaVuSans-48" transform="translate(3435.53125 0)"/>
     <use xlink:href="#DejaVuSans-47" transform="translate(3497.0625 0)"/>
     <use xlink:href="#DejaVuSans-4c" transform="translate(3560.546875 0)"/>
     <use xlink:href="#DejaVuSans-44" transform="translate(3588.328125 0)"/>
     <use xlink:href="#DejaVuSans-51" transform="translate(3649.609375 0)"/>
     <use xlink:href="#DejaVuSans-3" transform="translate(3712.984375 0)"/>
     <use xlink:href="#DejaVuSans-58" transform="translate(3744.765625 0)"/>
     <use xlink:href="#DejaVuSans-51" transform="translate(3808.140625 0)"/>
     <use xlink:href="#DejaVuSans-46" transform="translate(3871.515625 0)"/>
     <use xlink:href="#DejaVuSans-48" transform="translate(3926.5 0)"/>
     <use xlink:href="#DejaVuSans-55" transform="translate(3988.03125 0)"/>
     <use xlink:href="#DejaVuSans-57" transform="translate(4029.140625 0)"/>
     <use xlink:href="#DejaVuSans-44" transform="translate(4068.34375 0)"/>
     <use xlink:href="#DejaVuSans-4c" transform="translate(4129.625 0)"/>
     <use xlink:href="#DejaVuSans-51" transform="translate(4157.40625 0)"/>
     <use xlink:href="#DejaVuSans-57" transform="translate(4220.78125 0)"/>
     <use xlink:href="#DejaVuSans-5c" transform="translate(4259.984375 0)"/>
     <use xlink:href="#DejaVuSans-3" transform="translate(4319.171875 0)"/>
     <use xlink:href="#DejaVuSans-b" transform="translate(4350.953125 0)"/>
     <use xlink:href="#DejaVuSans-44" transform="translate(4389.96875 0)"/>
     <use xlink:href="#DejaVuSans-50" transform="translate(4451.25 0)"/>
     <use xlink:href="#DejaVuSans-4c" transform="translate(4548.65625 0)"/>
     <use xlink:href="#DejaVuSans-51" transform="translate(4576.4375 0)"/>
     <use xlink:href="#DejaVuSans-52" transform="translate(4639.8125 0)"/>
     <use xlink:href="#DejaVuSans-42" transform="translate(4701 0)"/>
     <use xlink:href="#DejaVuSans-44" transform="translate(4751 0)"/>
     <use xlink:href="#DejaVuSans-46" transform="translate(4812.28125 0)"/>
     <use xlink:href="#DejaVuSans-4c" transform="translate(4867.265625 0)"/>
     <use xlink:href="#DejaVuSans-47" transform="translate(4895.046875 0)"/>
     <use xlink:href="#DejaVuSans-42" transform="translate(4958.53125 0)"/>
     <use xlink:href="#DejaVuSans-53" transform="translate(5008.53125 0)"/>
     <use xlink:href="#DejaVuSans-55" transform="translate(5072.015625 0)"/>
     <use xlink:href="#DejaVuSans-52" transform="translate(5110.921875 0)"/>
     <use xlink:href="#DejaVuSans-13af" transform="translate(5172.109375 0)"/>
     <use xlink:href="#DejaVuSans-4f" transform="translate(5235.09375 0)"/>
     <use xlink:href="#DejaVuSans-48" transform="translate(5262.875 0)"/>
     <use xlink:href="#DejaVuSans-56" transform="translate(5324.40625 0)"/>
     <use xlink:href="#DejaVuSans-11" transform="translate(5376.5 0)"/>
     <use xlink:href="#DejaVuSans-57" transform="translate(5408.28125 0)"/>
     <use xlink:href="#DejaVuSans-56" transform="translate(5447.484375 0)"/>
     <use xlink:href="#DejaVuSans-59" transform="translate(5499.578125 0)"/>
     <use xlink:href="#DejaVuSans-f" transform="translate(5558.765625 0)"/>
     <use xlink:href="#DejaVuSans-3" transform="translate(5590.546875 0)"/>
     <use xlink:href="#DejaVuSans-58" transform="translate(5622.328125 0)"/>
     <use xlink:href="#DejaVuSans-51" transform="translate(5685.703125 0)"/>
     <use xlink:href="#DejaVuSans-46" transform="translate(5749.078125 0)"/>
     <use xlink:href="#DejaVuSans-48" transform="translate(5804.0625 0)"/>
     <use xlink:href="#DejaVuSans-55" transform="translate(5865.59375 0)"/>
     <use xlink:href="#DejaVuSans-57" transform="translate(5906.703125 0)"/>
     <use xlink:href="#DejaVuSans-44" transform="translate(5945.90625 0)"/>
     <use xlink:href="#DejaVuSans-4c" transform="translate(6007.1875 0)"/>
     <use xlink:href="#DejaVuSans-51" transform="translate(6034.96875 0)"/>
     <use xlink:href="#DejaVuSans-57" transform="translate(6098.34375 0)"/>
     <use xlink:href="#DejaVuSans-5c" transform="translate(6137.546875 0)"/>
     <use xlink:href="#DejaVuSans-42" transform="translate(6196.734375 0)"/>
     <use xlink:href="#DejaVuSans-4c" transform="translate(6246.734375 0)"/>
     <use xlink:href="#DejaVuSans-51" transform="translate(6274.515625 0)"/>
     <use xlink:href="#DejaVuSans-57" transform="translate(6337.890625 0)"/>
     <use xlink:href="#DejaVuSans-48" transform="translate(6377.09375 0)"/>
     <use xlink:href="#DejaVuSans-55" transform="translate(6438.625 0)"/>
     <use xlink:href="#DejaVuSans-59" transform="translate(6479.734375 0)"/>
     <use xlink:href="#DejaVuSans-44" transform="translate(6538.921875 0)"/>
     <use xlink:href="#DejaVuSans-4f" transform="translate(6600.203125 0)"/>
     <use xlink:href="#DejaVuSans-56" transform="translate(6627.984375 0)"/>
     <use xlink:href="#DejaVuSans-11" transform="translate(6680.078125 0)"/>
     <use xlink:href="#DejaVuSans-57" transform="translate(6711.859375 0)"/>
     <use xlink:href="#DejaVuSans-56" transform="translate(6751.0625 0)"/>
     <use xlink:href="#DejaVuSans-59" transform="translate(6803.15625 0)"/>
     <use xlink:href="#DejaVuSans-c" transform="translate(6862.34375 0)"/>
    </g>
   </g>
   <g id="legend_1">
    <g id="patch_47">
     <path d="M 562.483594 58.040156 
L 647.725781 58.040156 
Q 649.725781 58.040156 649.725781 56.040156 
L 649.725781 27.038594 
Q 649.725781 25.038594 647.725781 25.038594 
L 562.483594 25.038594 
Q 560.483594 25.038594 560.483594 27.038594 
L 560.483594 56.040156 
Q 560.483594 58.040156 562.483594 58.040156 
z
" style="fill: #ffffff; opacity: 0.8; stroke: #cccccc; stroke-linejoin: miter"/>
    </g>
    <g id="patch_48">
     <path d="M 564.483594 36.637031 
L 584.483594 36.637031 
L 584.483594 29.637031 
L 564.483594 29.637031 
z
" style="fill: #1f77b4"/>
    </g>
    <g id="text_30">
     <!-- combined -->
     <g transform="translate(592.483594 36.637031) scale(0.1 -0.1)">
      <use xlink:href="#DejaVuSans-46"/>
      <use xlink:href="#DejaVuSans-52" transform="translate(54.984375 0)"/>
      <use xlink:href="#DejaVuSans-50" transform="translate(116.171875 0)"/>
      <use xlink:href="#DejaVuSans-45" transform="translate(213.578125 0)"/>
      <use xlink:href="#DejaVuSans-4c" transform="translate(277.0625 0)"/>
      <use xlink:href="#DejaVuSans-51" transform="translate(304.84375 0)"/>
      <use xlink:href="#DejaVuSans-48" transform="translate(368.21875 0)"/>
      <use xlink:href="#DejaVuSans-47" transform="translate(429.75 0)"/>
     </g>
    </g>
    <g id="patch_49">
     <path d="M 564.483594 51.637813 
L 584.483594 51.637813 
L 584.483594 44.637813 
L 564.483594 44.637813 
z
" style="fill: #ff7f0e"/>
    </g>
    <g id="text_31">
     <!-- contractile -->
     <g transform="translate(592.483594 51.637813) scale(0.1 -0.1)">
      <use xlink:href="#DejaVuSans-46"/>
      <use xlink:href="#DejaVuSans-52" transform="translate(54.984375 0)"/>
      <use xlink:href="#DejaVuSans-51" transform="translate(116.171875 0)"/>
      <use xlink:href="#DejaVuSans-57" transform="translate(179.546875 0)"/>
      <use xlink:href="#DejaVuSans-55" transform="translate(218.75 0)"/>
      <use xlink:href="#DejaVuSans-44" transform="translate(259.859375 0)"/>
      <use xlink:href="#DejaVuSans-46" transform="translate(321.140625 0)"/>
      <use xlink:href="#DejaVuSans-57" transform="translate(376.125 0)"/>
      <use xlink:href="#DejaVuSans-4c" transform="translate(415.328125 0)"/>
      <use xlink:href="#DejaVuSans-4f" transform="translate(443.109375 0)"/>
      <use xlink:href="#DejaVuSans-48" transform="translate(470.890625 0)"/>
     </g>
    </g>
   </g>
  </g>
 </g>
 <defs>
  <clipPath id="peeead35bc0">
   <rect x="40.925781" y="20.038594" width="613.8" height="221.76"/>
  </clipPath>
 </defs>
</svg>
